<?xml version="1.0" encoding="UTF-8" standalone="no"?>
<!-- Created with Inkscape (http://www.inkscape.org/) -->

<svg
   width="512"
   height="512"
   viewBox="0 0 135.46666 135.46667"
   version="1.1"
   id="svg1"
   xml:space="preserve"
   inkscape:version="1.4.2 (ebf0e940, 2025-05-08)"
   sodipodi:docname="logo.svg"
   xmlns:inkscape="http://www.inkscape.org/namespaces/inkscape"
   xmlns:sodipodi="http://sodipodi.sourceforge.net/DTD/sodipodi-0.dtd"
   xmlns="http://www.w3.org/2000/svg"
   xmlns:svg="http://www.w3.org/2000/svg"><sodipodi:namedview
     id="namedview1"
     pagecolor="#ffffff"
     bordercolor="#000000"
     borderopacity="0.25"
     inkscape:showpageshadow="2"
     inkscape:pageopacity="0.0"
     inkscape:pagecheckerboard="0"
     inkscape:deskcolor="#d1d1d1"
     inkscape:document-units="mm"
     inkscape:zoom="0.18408204"
     inkscape:cx="-1349.9416"
     inkscape:cy="1124.4986"
     inkscape:window-width="1920"
     inkscape:window-height="931"
     inkscape:window-x="1080"
     inkscape:window-y="31"
     inkscape:window-maximized="1"
     inkscape:current-layer="layer1" /><defs
     id="defs1" /><g
     inkscape:label="Layer 1"
     inkscape:groupmode="layer"
     id="layer1"><rect
       style="fill:#1a1a1a;stroke-width:0.26472"
       id="rect1"
       width="135.46666"
       height="135.46666"
       x="3.5603841e-06"
       y="3.5603841e-06" /><path
       style="fill:#f9f9f9;stroke-width:0.58781"
       d="m 25.197266,102.88195 v -1.47749 H 23.705203 22.21314 l 0.05344,-1.36084 0.05344,-1.360844 h -1.438838 -1.438831 l 2.24e-4,-1.438602 2.29e-4,-1.438607 h -1.399732 -1.399724 v -9.642543 -9.642535 h 11.897648 11.897655 v 3.499306 3.499312 h 7.154141 7.154141 v -3.499312 -3.499306 h 12.753035 12.75304 v 3.499306 3.499312 h 7.154146 7.154141 v -3.499312 -3.499306 h 12.130945 12.13094 v 9.642535 9.642543 h -1.32196 -1.32196 v 1.399723 1.399724 h -1.39973 -1.39972 v 1.399726 1.39972 h -1.47749 -1.47748 v 1.3753 1.37531 l -2.591,0.10218 c -1.42506,0.0562 -20.601271,0.10219 -42.613823,0.10219 H 25.197213 Z M 45.259972,73.954326 v -5.365604 h 2.17735 2.177344 v 5.365604 5.365611 h -2.177344 -2.17735 z m 39.969886,0 v -5.365604 h 2.25511 2.255112 v 5.365604 5.365611 h -2.255112 -2.25511 z M 16.6434,65.244933 v -6.454277 h 1.399724 1.399724 v -1.399724 -1.399724 h 1.399724 1.399723 v -1.379379 -1.379374 l 0.583214,-0.0964 c 0.320775,-0.05302 0.985641,-0.09717 1.477486,-0.09811 l 0.894271,-0.0017 v -1.321963 -1.321956 h 1.399723 1.399724 v -1.321962 -1.321963 h 9.253729 9.25373 v -5.67667 -5.676662 h 1.399724 1.399723 v -1.321956 -1.321962 h 1.399724 1.399724 V 32.429188 31.107226 H 67.500022 82.89699 v 1.321962 1.321963 h 1.399724 1.399717 v 1.321962 1.321956 H 87.094216 88.492 l 0.04079,5.637779 0.04085,5.637779 9.525901,0.04008 9.525909,0.04009 v 1.320763 1.320769 h 1.39367 1.39367 l 0.045,1.36084 c 0.0313,0.947791 0.10396,1.366741 0.23935,1.380285 0.10692,0.0107 0.7543,0.02822 1.43861,0.03885 l 1.2442,0.01946 v 1.399724 1.399724 h 1.39972 1.39972 v 1.399724 1.399723 h 1.32197 1.32196 v 6.454276 6.454282 H 106.6923 94.561354 v -3.718679 -3.718642 l -2.449511,-0.05284 c -1.347238,-0.02903 -4.5666,-0.02922 -7.154142,-3e-4 l -4.704635,0.05255 v 3.718936 3.718935 H 67.500027 54.746992 v -3.723723 -3.723726 l -5.637773,-0.04773 c -3.100776,-0.02628 -6.320144,-0.02545 -7.154148,0.0017 l -1.516362,0.04955 v 3.721927 3.721922 H 28.541055 16.643407 Z M 82.89699,43.471456 V 39.194518 H 81.419493 79.942009 V 37.794794 36.39507 H 67.500022 55.058037 v 1.399724 1.399724 h -1.399724 -1.399724 v 4.276938 4.276934 H 67.577783 82.89699 Z"
       id="path2" /></g><style
     type="text/css"
     id="style1">
	.st0{fill:#DC1419;}
</style></svg>
